<svg id="Layer_1" data-name="Layer 1" xmlns="http://www.w3.org/2000/svg" xmlns:xlink="http://www.w3.org/1999/xlink" viewBox="0 0 451.23 125.86"><defs><radialGradient id="radial-gradient" cx="-1715.33" cy="499.57" r="58.41" gradientTransform="matrix(-1.3, 0, 0, 0.33, -2091.35, 194.14)" gradientUnits="userSpaceOnUse"><stop offset="0.17" stop-color="#231f20"/><stop offset="0.27" stop-color="#737171" stop-opacity="0.64"/><stop offset="0.43" stop-color="#dbdada" stop-opacity="0.17"/><stop offset="0.55" stop-color="#fff" stop-opacity="0"/></radialGradient></defs><title>accelogix-logo-website</title><path d="M191.66,362.69c0-6.44-34.77-17.22-59.91-17.22s-45.54,5.22-45.54,11.66,34.77,17.22,59.91,17.22S191.66,369.13,191.66,362.69Z" transform="translate(-75.65 -248.49)" fill="url(#radial-gradient)"/><path d="M239.51,312.79h-6.82v-4.15a5.41,5.41,0,0,1-.94,1A15.06,15.06,0,0,1,221.58,313,25.53,25.53,0,0,1,208,309.37q-7.65-4.36-7.65-11.77T208,285.92a27.52,27.52,0,0,1,13.53-3.63c7.13-.27,14.33,1.65,17.93,4.74v25.75Zm-6.82-7.19V288.22a19.9,19.9,0,0,0-8.75-2.18,21.42,21.42,0,0,0-10.83,2.57q-6.12,3.34-6.12,9t6.12,9.07a22.82,22.82,0,0,0,11.15,2.76A11.33,11.33,0,0,0,232.69,305.59Z" transform="translate(-75.65 -248.49)" fill="#434448"/><path d="M284.36,308.64a31.28,31.28,0,0,1-16.24,4.07,33.1,33.1,0,0,1-15-3.42q-8.52-4.22-8.52-11.72t8.52-11.71a33.1,33.1,0,0,1,15-3.42,31.58,31.58,0,0,1,16.17,4.07l-5,3.06a19.5,19.5,0,0,0-11.19-3.13,19.82,19.82,0,0,0-10.18,2.7q-5.48,3.2-5.49,8.44,0,5.39,5.42,8.44a20.3,20.3,0,0,0,10.25,2.55,19.65,19.65,0,0,0,11.19-3.34Z" transform="translate(-75.65 -248.49)" fill="#434448"/><path d="M327.88,308.64a31.25,31.25,0,0,1-16.24,4.07,33.12,33.12,0,0,1-15-3.42q-8.52-4.22-8.51-11.72t8.51-11.71a33.12,33.12,0,0,1,15-3.42,31.57,31.57,0,0,1,16.17,4.07l-5,3.06a19.47,19.47,0,0,0-11.19-3.13,19.82,19.82,0,0,0-10.17,2.7q-5.48,3.2-5.49,8.44,0,5.39,5.41,8.44a20.35,20.35,0,0,0,10.25,2.55,19.63,19.63,0,0,0,11.19-3.34Z" transform="translate(-75.65 -248.49)" fill="#434448"/><path d="M371,297.43H338.2v0.07q0,7.86,9.1,11.06a15.72,15.72,0,0,0,11.9,0,16.24,16.24,0,0,0,5.28-2.83l4.26,3.35q-5.78,4.22-15.52,4.22-8.58,0-14.44-3.5a13.47,13.47,0,0,1-7.14-12.29q0-7.27,6.42-11.71a22.4,22.4,0,0,1,13.21-4,22.74,22.74,0,0,1,13.21,4Q371,290.26,371,297.43Zm-6.93-3.2a10.64,10.64,0,0,0-3.47-4.95,13.86,13.86,0,0,0-9.31-3.28,13.31,13.31,0,0,0-9.31,3.42,11.44,11.44,0,0,0-3.24,4.8H364Z" transform="translate(-75.65 -248.49)" fill="#434448"/><path d="M382.62,312.79h-6.81V264l6.81-4.38v53.21Z" transform="translate(-75.65 -248.49)" fill="#434448"/><path d="M432,297.61q0,7.41-7.65,11.77A28.65,28.65,0,0,1,410,313a28.26,28.26,0,0,1-14.29-3.63Q388,305,388,297.61t7.65-11.69a30,30,0,0,1,28.58,0Q432,290.28,432,297.61Zm-7.36,0a9.62,9.62,0,0,0-4.89-8.49,17.29,17.29,0,0,0-9.76-2.75,17.07,17.07,0,0,0-9.7,2.83q-4.88,3.2-4.88,8.41a9.56,9.56,0,0,0,4.88,8.41,17.17,17.17,0,0,0,9.7,2.76,17.46,17.46,0,0,0,9.76-2.76A9.55,9.55,0,0,0,424.62,297.61Z" transform="translate(-75.65 -248.49)" fill="#434448"/><path d="M475.64,287.17v24.67q0,10-10.6,14.34-7.37,3-19.13,3v-2a44.07,44.07,0,0,0,10.1-1q6.86-1.38,9-3.93a13.56,13.56,0,0,0,3.25-8.66V311a28.44,28.44,0,0,1-10.66,2,25.41,25.41,0,0,1-13.5-3.63q-7.64-4.36-7.64-11.77t7.65-11.69a27.77,27.77,0,0,1,14.29-3.63C464.91,282.36,471.11,283.87,475.64,287.17Zm-7.07.22a16.22,16.22,0,0,0-7.44-1.6A22.92,22.92,0,0,0,450,288.62q-6.11,3.34-6.12,9t6.1,9.07a21.12,21.12,0,0,0,18.33,1.23Z" transform="translate(-75.65 -248.49)" fill="#434448"/><path d="M488,312.79h-6.94V287.1l0.43-4.66h6.1l0.34,4.66v21Z" transform="translate(-75.65 -248.49)" fill="#434448"/><path d="M526.87,313h-8.75l-10-13.52L496.25,313H492l14.19-16.07L495,282.3h9.43l6.53,9.17,8-9.17h3.85l-10,11.65Z" transform="translate(-75.65 -248.49)" fill="#434448"/><rect x="405.64" y="23.7" width="6.61" height="6.61" fill="#434448"/><rect x="223.98" y="108" width="3.1" height="3.11" fill="#878788"/><rect x="344.04" y="108" width="3.1" height="3.11" fill="#878788"/><rect x="439.64" y="108" width="3.1" height="3.11" fill="#878788"/><rect x="184.94" y="90.25" width="3.11" height="3.11" fill="#878788"/><rect x="394.48" y="90.25" width="3.11" height="3.11" fill="#878788"/><path d="M222.81,359.48V358a8.5,8.5,0,0,1-5.61,1.8,8.14,8.14,0,0,1-6.2-2.42,8.83,8.83,0,0,1,0-11.56,8.26,8.26,0,0,1,6.29-2.42,8.59,8.59,0,0,1,5.49,1.74v-6.7h3v21h-3Zm-1.44-11.9a5.58,5.58,0,0,0-4.2-1.49,5,5,0,0,0-3.92,1.57,5.72,5.72,0,0,0-1.41,4,5.51,5.51,0,0,0,1.33,3.87,5.11,5.11,0,0,0,4,1.58,5.52,5.52,0,0,0,4.11-1.55,5.32,5.32,0,0,0,1.53-3.9A5.59,5.59,0,0,0,221.36,347.57Z" transform="translate(-75.65 -248.49)" fill="#878788"/><path d="M229.9,353.06q0.53,4.09,5.46,4.09,4,0,5.42-3.38h3.07q-1.3,3.75-3.69,5a10.61,10.61,0,0,1-4.87,1.05,8.55,8.55,0,0,1-6.32-2.2,8.41,8.41,0,0,1,.22-11.38,8.59,8.59,0,0,1,6.26-2.26,9.21,9.21,0,0,1,6.2,2,6.74,6.74,0,0,1,2.36,5.39V353Zm9.52-5.14a5.59,5.59,0,0,0-4-1.33,5.7,5.7,0,0,0-4,1.33,4.77,4.77,0,0,0-1.46,2.51h10.79A4.5,4.5,0,0,0,239.42,347.92Z" transform="translate(-75.65 -248.49)" fill="#878788"/><path d="M256.31,358.95a9.69,9.69,0,0,1-4.46.9q-7.59,0-7.59-7h3a4.46,4.46,0,0,0,1,3.36,5.25,5.25,0,0,0,3.56.95q3.87,0,3.87-2,0-1.21-2.54-1.74l-3.1-.43q-5.21-.74-5.21-4.37a4,4,0,0,1,2.17-3.63,8.06,8.06,0,0,1,4.25-1.08q7.35,0,7.38,6.39h-3.07a3.72,3.72,0,0,0-.91-2.88,5,5,0,0,0-3.24-.81,5.15,5.15,0,0,0-2.54.56,1.65,1.65,0,0,0-1,1.46q0,1.15,2.45,1.55,0.81,0.16,3.25.56,5.14,0.81,5.14,4.43A4,4,0,0,1,256.31,358.95Z" transform="translate(-75.65 -248.49)" fill="#878788"/><path d="M260.47,359.45V343.7h3v15.75h-3Z" transform="translate(-75.65 -248.49)" fill="#878788"/><path d="M272.89,365a9.65,9.65,0,0,1-4.9-1.12q-2.48-1.4-2.73-5.33h2.94a4,4,0,0,0,1.36,3,5.63,5.63,0,0,0,3.35.78,6.23,6.23,0,0,0,3.89-1,3.52,3.52,0,0,0,1.19-2.91v-0.28a9.74,9.74,0,0,1-10.17.4,7.26,7.26,0,0,1-3.44-6.63,7.7,7.7,0,0,1,2.26-5.73,8.4,8.4,0,0,1,6.17-2.23,8.24,8.24,0,0,1,5.18,1.64v-1.3h3v14.17a5.84,5.84,0,0,1-2.17,4.93A9.41,9.41,0,0,1,272.89,365Zm3.69-16.82a5,5,0,0,0-3.81-1.53,5,5,0,0,0-5.36,5.27,5.27,5.27,0,0,0,1.33,3.75,5,5,0,0,0,3.81,1.43,5.53,5.53,0,0,0,4-1.39A4.94,4.94,0,0,0,278,352,5.37,5.37,0,0,0,276.58,348.18Z" transform="translate(-75.65 -248.49)" fill="#878788"/><path d="M294.78,359.45v-9.7q0-3.16-4.09-3.16a5,5,0,0,0-3.61,1.22,4.23,4.23,0,0,0-1.29,3.21v8.43h-3V344.26h3v1a8.44,8.44,0,0,1,4.87-1.33,8.55,8.55,0,0,1,4.9,1.3,4.79,4.79,0,0,1,2.2,4.22v10h-3Z" transform="translate(-75.65 -248.49)" fill="#878788"/><path d="M312.15,353.06q0.53,4.09,5.46,4.09,4,0,5.42-3.38h3.07q-1.3,3.75-3.69,5a10.61,10.61,0,0,1-4.87,1.05,8.55,8.55,0,0,1-6.32-2.2,8.41,8.41,0,0,1,.22-11.38,8.59,8.59,0,0,1,6.26-2.26,9.21,9.21,0,0,1,6.2,2,6.74,6.74,0,0,1,2.36,5.39V353Zm9.52-5.14a5.59,5.59,0,0,0-4-1.33,5.7,5.7,0,0,0-4,1.33,4.77,4.77,0,0,0-1.46,2.51H323A4.51,4.51,0,0,0,321.66,347.92Z" transform="translate(-75.65 -248.49)" fill="#878788"/><path d="M339.39,359.45l-5.8-5.83-5.77,5.83h-4l7.78-7.81-7.13-7.32h4l5.11,5.36,5.24-5.36h3.9l-7.16,7.32,7.78,7.81h-4Z" transform="translate(-75.65 -248.49)" fill="#878788"/><path d="M344.13,353.06q0.53,4.09,5.46,4.09,4,0,5.42-3.38h3.07q-1.3,3.75-3.69,5a10.61,10.61,0,0,1-4.87,1.05,8.55,8.55,0,0,1-6.32-2.2,8.41,8.41,0,0,1,.22-11.38,8.6,8.6,0,0,1,6.26-2.26,9.21,9.21,0,0,1,6.2,2,6.74,6.74,0,0,1,2.36,5.39V353Zm9.52-5.14a5.59,5.59,0,0,0-4-1.33,5.7,5.7,0,0,0-4,1.33,4.77,4.77,0,0,0-1.46,2.51H355A4.51,4.51,0,0,0,353.65,347.92Z" transform="translate(-75.65 -248.49)" fill="#878788"/><path d="M372.31,358.64a9.73,9.73,0,0,1-4.84,1.15,9.08,9.08,0,0,1-6.29-2.11,7.09,7.09,0,0,1-2.36-5.55,7.76,7.76,0,0,1,2.4-5.92,9.22,9.22,0,0,1,6.59-2.26,8.93,8.93,0,0,1,4.46,1.08,6.81,6.81,0,0,1,3,4.25l-2.73,1.24a5.76,5.76,0,0,0-1.72-3.08,5,5,0,0,0-3.12-.85,6,6,0,0,0-4.39,1.52,5.42,5.42,0,0,0-1.53,4,4.67,4.67,0,0,0,1.43,3.63,5.88,5.88,0,0,0,4.18,1.39,6.48,6.48,0,0,0,3.27-.79q1.38-.79,1.94-3.46L375.5,354A7.08,7.08,0,0,1,372.31,358.64Z" transform="translate(-75.65 -248.49)" fill="#878788"/><path d="M388.49,359.51v-1.05a8.53,8.53,0,0,1-4.87,1.33,8.19,8.19,0,0,1-5.05-1.43,5.19,5.19,0,0,1-2-4.4v-9.64h3v9.61q0,3.22,4.12,3.22,4.87,0,4.87-4.68v-8.15h3v15.19h-3Z" transform="translate(-75.65 -248.49)" fill="#878788"/><path d="M398.31,347.33v12.12H395.4l-0.06-12.12h-3.1v-2.7h3.1v-4.22h3v4.22h3.13v2.7h-3.13Z" transform="translate(-75.65 -248.49)" fill="#878788"/><path d="M404.2,353.06q0.53,4.09,5.46,4.09,4,0,5.42-3.38h3.07q-1.3,3.75-3.69,5a10.61,10.61,0,0,1-4.87,1.05,8.55,8.55,0,0,1-6.32-2.2,8.41,8.41,0,0,1,.22-11.38,8.6,8.6,0,0,1,6.26-2.26,9.21,9.21,0,0,1,6.2,2,6.74,6.74,0,0,1,2.36,5.39V353Zm9.52-5.14a5.59,5.59,0,0,0-4-1.33,5.7,5.7,0,0,0-4,1.33,4.77,4.77,0,0,0-1.46,2.51h10.79A4.51,4.51,0,0,0,413.72,347.92Z" transform="translate(-75.65 -248.49)" fill="#878788"/><path d="M442.79,359.48V358a8.51,8.51,0,0,1-5.61,1.8,8.14,8.14,0,0,1-6.2-2.42,8.83,8.83,0,0,1,0-11.56,8.26,8.26,0,0,1,6.29-2.42,8.59,8.59,0,0,1,5.49,1.74v-6.7h3v21h-3Zm-1.44-11.9a5.58,5.58,0,0,0-4.2-1.49,5,5,0,0,0-3.92,1.57,5.72,5.72,0,0,0-1.41,4,5.52,5.52,0,0,0,1.33,3.87,5.11,5.11,0,0,0,4,1.58,5.52,5.52,0,0,0,4.11-1.55,5.32,5.32,0,0,0,1.53-3.9A5.59,5.59,0,0,0,441.35,347.57Z" transform="translate(-75.65 -248.49)" fill="#878788"/><path d="M449.89,353.06q0.53,4.09,5.46,4.09,4,0,5.42-3.38h3.07q-1.3,3.75-3.69,5a10.61,10.61,0,0,1-4.87,1.05,8.55,8.55,0,0,1-6.32-2.2,8.41,8.41,0,0,1,.22-11.38,8.6,8.6,0,0,1,6.26-2.26,9.21,9.21,0,0,1,6.2,2,6.74,6.74,0,0,1,2.36,5.39V353Zm9.52-5.14a5.59,5.59,0,0,0-4-1.33,5.7,5.7,0,0,0-4,1.33,4.77,4.77,0,0,0-1.46,2.51h10.79A4.51,4.51,0,0,0,459.4,347.92Z" transform="translate(-75.65 -248.49)" fill="#878788"/><path d="M464.77,359.45v-21h3v21h-3Z" transform="translate(-75.65 -248.49)" fill="#878788"/><path d="M469.6,359.45V344.11h3v15.33h-3Z" transform="translate(-75.65 -248.49)" fill="#878788"/><path d="M483.37,359.45h-2.26L473,344.11h3.41l5.73,11.27,5.33-11.27h3.25Z" transform="translate(-75.65 -248.49)" fill="#878788"/><path d="M492.29,353.06q0.53,4.09,5.46,4.09,4,0,5.42-3.38h3.07q-1.3,3.75-3.69,5a10.61,10.61,0,0,1-4.87,1.05,8.55,8.55,0,0,1-6.32-2.2,8.41,8.41,0,0,1,.22-11.38,8.6,8.6,0,0,1,6.26-2.26,9.21,9.21,0,0,1,6.2,2,6.74,6.74,0,0,1,2.36,5.39V353Zm9.52-5.14a5.59,5.59,0,0,0-4-1.33,5.7,5.7,0,0,0-4,1.33,4.77,4.77,0,0,0-1.46,2.51h10.79A4.51,4.51,0,0,0,501.8,347.92Z" transform="translate(-75.65 -248.49)" fill="#878788"/><path d="M511.38,348.6a7.87,7.87,0,0,0-1.24,4.62v6.23h-3V344.26h3v1.4q2.2-1.7,6.6-1.71v2.63Q512.77,346.58,511.38,348.6Z" transform="translate(-75.65 -248.49)" fill="#878788"/><polygon points="65.69 106.72 103.65 64.38 99.47 19.06 50.51 0.72 3.46 34.69 1.15 37.95 27.73 79.56 65.69 106.72" fill="#fff"/><polygon points="28.81 56.05 50.6 97.93 61.54 104.58 44.71 67.28 28.81 56.05" fill="#f05a27"/><polygon points="45.11 67.08 29.04 55.17 46.87 39.21 65.14 49.17 79.29 91.71 64.78 109.44 45.11 67.08" fill="#ef7622"/><path d="M181.61,309c-0.29-1.77-1.79-13.06-3.11-23-1.41-10.59-2.27-17.09-2.42-17.92-0.42-2.4-2.58-4.36-5.79-5.23-2-.55-23.75-7.52-35.43-11.26l-8.56-2.74c-2.29-.7-3.17-0.34-5.12.88-1.79,1.12-41.41,31.14-43.41,32.76s-3.12,4.35-1.08,7.82c1.2,2,23.11,35.6,24.08,37.07,0.5,0.77,3.51,3.6,33,27.72l2.4,2a7,7,0,0,0,4.29,1.94,4.36,4.36,0,0,0,3.32-1.69s35.15-39.95,36.43-41.38C181.67,314.1,182.11,312.1,181.61,309ZM151.7,327.44c-1.34-4-2.81-8.37-4.18-12.4l14.19-14.19,2.56,13.24Zm13-10.94,1.74,9-11.18,12.7-2.88-8.59Zm-55.87,8.41L102.39,314l9.11,6.79,5.89,10.59Zm10.33,9.76,3.41,6.13c-3.36-2.77-6.15-5.08-8.44-7l-3.24-5.45ZM91.55,305.94l6.67,5,6.4,10.76L99,317.39Zm46.21-32.42-15.45,13.2-0.1-.06-0.08.07-13-7.08L124,267.76Zm-12-7.19,12-9.64,14.34,4.59-12.63,10.78Zm46.72,4.6c0.41,3,1.17,8.68,1.93,14.4L163,296.78l-2.78-14.35Zm-51.6,42.77-14.61-10.36c2.49-2.33,10.41-9.25,16.14-14.21l0.06,0.08,0.09-.07c2.74,1.54,12.57,7.06,15.41,8.6Zm-16.26-11.53-12.48-8.85L107.48,281l13,7.12C117,291.21,107.25,299.65,104.61,302.17Zm-1.13,4.09c0.17,0.38.39,0.78,0.63,1.22,0.34,0.62,2.63,4.76,5.62,10.14l-9.34-7L93.6,299.26Zm3.67,2.61,12.29,8.72,5,11-10.82-8.06Zm16.29,7.88,17-15.93,0.25,0.63,0.16,0.41c0.42,1.08,2.2,6.31,4.34,12.63l-15.68,15.69Zm19.31-15.6-0.16-.41c-0.2-.52-0.37-1-0.55-1.38L158.45,284l2.8,14.45-14.44,14.45C144.81,307,143.17,302.21,142.76,301.15Zm-3.27-4.86c-1.26-.64-11.61-6.44-15.33-8.54l15.66-13.38,16,6.68Zm-32.23-17.68-10.38-5.67L111,262.31l10.92,4.57ZM105.58,280L90.44,292.13l-9.72-6.89c1.67-1.3,7.54-5.76,14.42-11Zm-16,16.44,6.64,11.15-7-5.24c-3-4.63-5.75-8.86-7.43-11.45Zm25.81,27.29,10.33,7.7,4.42,9.72-8.79-6.7Zm15,8.42,15.51-15.52c1.39,4.12,2.87,8.52,4.2,12.48L135.92,344.2Zm33-33,11.31-11.32c0.63,4.72,1.25,9.43,1.77,13.28L166,312.29Zm7.18-31.91-13.2,12.33-15.87-6.63L154.32,262c7.54,2.4,13.83,4.4,14.92,4.7A7.14,7.14,0,0,1,170.59,267.23ZM123.3,253.11a11,11,0,0,1,1.09-.63,3.65,3.65,0,0,1,.74.19l8.52,2.72,1.83,0.59-11.82,9.49-10.85-4.54C118.47,256.66,122.75,253.46,123.3,253.11Zm-19.2,72.07-2.65-4,5.22,4,2.87,4.81C105.81,326.78,104.39,325.51,104.1,325.18Zm22.72,19.08-3.66-6.58,8.29,6.32,2.94,6.47Zm13.94,10.42-0.05,0-3.89-8.57,14.06-14.93,2.91,8.67Zm36.44-41.4c-0.4.46-4.12,4.7-9.05,10.3l-1.72-8.88,10.41-11.06c0.41,3.06.72,5.28,0.84,6C178,311.58,177.75,312.63,177.19,313.28Z" transform="translate(-75.65 -248.49)" fill="#434448"/></svg>